<svg width="17" height="18" viewBox="0 0 17 18" fill="none" xmlns="http://www.w3.org/2000/svg">
<path d="M15.5998 0H1.1998C0.96111 0 0.732191 0.105357 0.563409 0.292893C0.394626 0.48043 0.299805 0.734784 0.299805 1V17C0.299805 17.2652 0.394626 17.5196 0.563409 17.7071C0.732191 17.8946 0.96111 18 1.1998 18H8.9533V11.04H6.8491V8.315H8.9533V6.315C8.9533 3.99 10.2313 2.723 12.1033 2.723C12.7324 2.721 13.3624 2.757 13.9888 2.83V5.25H12.6973C11.6821 5.25 11.4841 5.788 11.4841 6.575V8.31H13.9114L13.5964 11.035H11.4832V18H15.5998C15.8385 18 16.0674 17.8946 16.2362 17.7071C16.405 17.5196 16.4998 17.2652 16.4998 17V1C16.4998 0.734784 16.405 0.48043 16.2362 0.292893C16.0674 0.105357 15.8385 0 15.5998 0Z" fill="#F9F9F9" fill-opacity="0.5"/>
</svg>
