<svg width="21" height="22" viewBox="0 0 21 22" fill="none" xmlns="http://www.w3.org/2000/svg">
<path fill-rule="evenodd" clip-rule="evenodd" d="M6.6183 0.066C7.674 0.012 8.0106 0 10.6998 0C13.389 0 13.7256 0.013 14.7804 0.066C15.8352 0.119 16.5552 0.306 17.1852 0.577C17.8449 0.854 18.4434 1.287 18.9384 1.847C19.4424 2.396 19.8312 3.06 20.0796 3.794C20.3244 4.494 20.4918 5.294 20.5404 6.464C20.589 7.639 20.5998 8.013 20.5998 11C20.5998 13.988 20.5881 14.362 20.5404 15.535C20.4927 16.705 20.3244 17.505 20.0796 18.205C19.8312 18.9391 19.4418 19.6042 18.9384 20.154C18.4434 20.714 17.8449 21.146 17.1852 21.422C16.5552 21.694 15.8352 21.88 14.7822 21.934C13.7256 21.988 13.389 22 10.6998 22C8.0106 22 7.674 21.987 6.6183 21.934C5.5653 21.881 4.8453 21.694 4.2153 21.422C3.55463 21.146 2.95604 20.7133 2.4612 20.154C1.95755 19.6047 1.56779 18.9399 1.3191 18.206C1.0752 17.506 0.907805 16.706 0.859205 15.536C0.810605 14.361 0.799805 13.987 0.799805 11C0.799805 8.012 0.811505 7.638 0.859205 6.466C0.906905 5.294 1.0752 4.494 1.3191 3.794C1.56816 3.06008 1.95821 2.39531 2.4621 1.846C2.95624 1.2865 3.55423 0.853443 4.2144 0.577C4.8444 0.306 5.5644 0.12 6.6174 0.066H6.6183ZM14.7003 2.046C13.6563 1.993 13.3431 1.982 10.6998 1.982C8.0565 1.982 7.7433 1.993 6.6993 2.046C5.7336 2.095 5.2098 2.274 4.8606 2.425C4.3989 2.625 4.0686 2.862 3.7221 3.247C3.39365 3.60205 3.14087 4.03428 2.9823 4.512C2.8464 4.9 2.6853 5.482 2.6412 6.555C2.5935 7.715 2.5836 8.063 2.5836 11C2.5836 13.937 2.5935 14.285 2.6412 15.445C2.6853 16.518 2.8464 17.1 2.9823 17.488C3.1407 17.965 3.3936 18.398 3.7221 18.753C4.0416 19.118 4.4313 19.399 4.8606 19.575C5.2098 19.726 5.7336 19.905 6.6993 19.954C7.7433 20.007 8.0556 20.018 10.6998 20.018C13.344 20.018 13.6563 20.007 14.7003 19.954C15.666 19.905 16.1898 19.726 16.539 19.575C17.0007 19.375 17.331 19.138 17.6775 18.753C18.006 18.398 18.2589 17.965 18.4173 17.488C18.5532 17.1 18.7143 16.518 18.7584 15.445C18.8061 14.285 18.816 13.937 18.816 11C18.816 8.063 18.8061 7.715 18.7584 6.555C18.7143 5.482 18.5532 4.9 18.4173 4.512C18.2373 3.999 18.024 3.632 17.6775 3.247C17.3579 2.88207 16.9689 2.60121 16.539 2.425C16.1898 2.274 15.666 2.095 14.7003 2.046V2.046ZM9.4353 14.391C10.1415 14.7176 10.9278 14.7617 11.66 14.5157C12.3922 14.2697 13.0249 13.7489 13.4499 13.0422C13.8748 12.3356 14.0659 11.4869 13.9902 10.6411C13.9146 9.79534 13.5771 9.00497 13.0353 8.405C12.6899 8.02148 12.2723 7.72781 11.8125 7.54515C11.3527 7.36248 10.8622 7.29536 10.3763 7.34862C9.89031 7.40187 9.42104 7.57418 9.00223 7.85313C8.58341 8.13208 8.22547 8.51074 7.95418 8.96185C7.68288 9.41296 7.50497 9.92529 7.43327 10.462C7.36156 10.9986 7.39784 11.5463 7.53949 12.0655C7.68114 12.5847 7.92464 13.0626 8.25245 13.4647C8.58027 13.8668 8.98425 14.1832 9.4353 14.391ZM7.1016 7.002C7.57413 6.47698 8.13509 6.0605 8.75247 5.77636C9.36985 5.49222 10.0316 5.34597 10.6998 5.34597C11.3681 5.34597 12.0298 5.49222 12.6471 5.77636C13.2645 6.0605 13.8255 6.47698 14.298 7.002C14.7705 7.52702 15.1454 8.15032 15.4011 8.8363C15.6568 9.52228 15.7884 10.2575 15.7884 11C15.7884 11.7425 15.6568 12.4777 15.4011 13.1637C15.1454 13.8497 14.7705 14.473 14.298 14.998C13.3437 16.0583 12.0494 16.654 10.6998 16.654C9.35022 16.654 8.05591 16.0583 7.1016 14.998C6.1473 13.9377 5.61118 12.4995 5.61118 11C5.61118 9.50046 6.1473 8.06234 7.1016 7.002V7.002ZM16.917 6.188C17.0341 6.06527 17.1278 5.91768 17.1927 5.75397C17.2575 5.59027 17.2921 5.41377 17.2945 5.23493C17.2968 5.05609 17.2669 4.87855 17.2063 4.71281C17.1458 4.54707 17.056 4.39651 16.9422 4.27004C16.8283 4.14357 16.6928 4.04376 16.5437 3.97652C16.3945 3.90928 16.2347 3.87598 16.0738 3.87858C15.9128 3.88119 15.754 3.91965 15.6066 3.9917C15.4593 4.06374 15.3265 4.1679 15.216 4.298C15.0012 4.55103 14.8836 4.88712 14.8881 5.23493C14.8927 5.58274 15.0191 5.91488 15.2404 6.16084C15.4618 6.40681 15.7607 6.54723 16.0738 6.5523C16.3868 6.55737 16.6893 6.42669 16.917 6.188V6.188Z" fill="#F9F9F9" fill-opacity="0.5"/>
</svg>
