<svg width="21" height="22" viewBox="0 0 21 22" fill="none" xmlns="http://www.w3.org/2000/svg">
<path fill-rule="evenodd" clip-rule="evenodd" d="M0.700196 1.838C0.700196 1.35053 0.874477 0.883032 1.1847 0.53834C1.49492 0.193648 1.91567 2.45031e-06 2.3544 2.45031e-06H18.8442C19.0616 -0.000392101 19.277 0.0468654 19.4779 0.139069C19.6789 0.231273 19.8615 0.366612 20.0153 0.537339C20.1691 0.708065 20.2911 0.910826 20.3743 1.13401C20.4576 1.3572 20.5003 1.59643 20.5002 1.838V20.16C20.5004 20.4016 20.4578 20.6409 20.3747 20.8642C20.2916 21.0875 20.1697 21.2904 20.016 21.4613C19.8623 21.6322 19.6797 21.7678 19.4788 21.8602C19.2779 21.9526 19.0626 22.0001 18.8451 22H2.3544C2.13709 22 1.92191 21.9524 1.72115 21.86C1.5204 21.7676 1.338 21.6321 1.18438 21.4613C1.03076 21.2905 0.908934 21.0878 0.825856 20.8647C0.742777 20.6416 0.700077 20.4025 0.700196 20.161V1.838ZM8.5374 8.388H11.2185V9.884C11.6055 9.024 12.5955 8.25 14.0832 8.25C16.9353 8.25 17.6112 9.963 17.6112 13.106V18.928H14.7249V13.822C14.7249 12.032 14.3379 11.022 13.3551 11.022C11.9916 11.022 11.4246 12.111 11.4246 13.822V18.928H8.5374V8.388ZM3.5874 18.791H6.4746V8.25H3.5874V18.79V18.791ZM6.8877 4.812C6.89314 5.08668 6.84915 5.35979 6.75831 5.61532C6.66747 5.87084 6.53161 6.10364 6.3587 6.30003C6.1858 6.49643 5.97932 6.65248 5.75141 6.75901C5.52349 6.86554 5.27871 6.92042 5.03145 6.92042C4.78418 6.92042 4.53941 6.86554 4.31149 6.75901C4.08357 6.65248 3.87709 6.49643 3.70419 6.30003C3.53128 6.10364 3.39542 5.87084 3.30458 5.61532C3.21374 5.35979 3.16975 5.08668 3.1752 4.812C3.18588 4.27286 3.38614 3.75979 3.73309 3.38269C4.08004 3.00558 4.5461 2.79442 5.03145 2.79442C5.51679 2.79442 5.98285 3.00558 6.3298 3.38269C6.67675 3.75979 6.87701 4.27286 6.8877 4.812Z" fill="#F9F9F9" fill-opacity="0.5"/>
</svg>
