<svg width="276" height="40" viewBox="0 0 276 40" fill="none" xmlns="http://www.w3.org/2000/svg">
<g clip-path="url(#clip0_277_435)">
<path d="M20.4119 11.225C19.7353 10.3805 18.8303 9.7495 17.8052 9.40749C16.8077 9.03646 15.7545 8.83855 14.6908 8.82225C14.0942 8.82513 13.4997 8.89339 12.9179 9.02581C12.3177 9.15658 11.7382 9.36941 11.1958 9.6583C10.672 9.93035 10.2198 10.3227 9.87605 10.8033C9.53025 11.311 9.35382 11.9155 9.37209 12.53C9.34743 13.0137 9.44599 13.4958 9.65847 13.9308C9.87096 14.3657 10.1904 14.7393 10.5867 15.0164C11.5288 15.6587 12.5614 16.1561 13.6503 16.4922C14.883 16.8969 16.2123 17.3028 17.6384 17.7099C19.0379 18.1066 20.3789 18.6872 21.6265 19.4366C22.8504 20.1965 23.8856 21.2258 24.6539 22.4464C25.4612 23.7017 25.866 25.3774 25.8684 27.4736C25.9151 29.2829 25.5389 31.078 24.7699 32.7154C24.0583 34.1619 23.0266 35.4263 21.7534 36.4122C20.4394 37.4178 18.9435 38.1584 17.3483 38.5932C15.6249 39.0728 13.8436 39.3113 12.055 39.3021C9.84911 39.3241 7.656 38.9638 5.5725 38.237C3.50065 37.4784 1.60462 36.3047 0 34.7873L5.62326 28.6078C6.43002 29.6802 7.48697 30.5377 8.70136 31.105C9.88885 31.6838 11.1915 31.9857 12.5118 31.9884C13.1686 31.9865 13.823 31.9097 14.4624 31.7594C15.0842 31.6201 15.6817 31.3886 16.2353 31.0723C16.739 30.7835 17.1715 30.3847 17.5006 29.9055C17.8273 29.4089 17.9955 28.8244 17.9828 28.2297C17.9999 27.7327 17.8956 27.2391 17.6788 26.7918C17.4621 26.3445 17.1395 25.9571 16.7392 25.6634C15.7892 24.9731 14.7388 24.4336 13.6249 24.064C12.3753 23.6253 11.0241 23.1855 9.5715 22.7445C8.15464 22.3221 6.79462 21.7276 5.52174 20.9742C4.27895 20.2361 3.21521 19.2304 2.40738 18.0298C1.57833 16.8181 1.16381 15.209 1.16381 13.2025C1.12388 11.438 1.51601 9.69067 2.30586 8.11341C3.04176 6.68774 4.07853 5.43987 5.34409 4.45656C6.65469 3.45733 8.14012 2.71268 9.72377 2.261C11.3851 1.77268 13.1082 1.52781 14.8394 1.53399C16.8299 1.52466 18.8106 1.81256 20.7165 2.38822C22.6136 2.97026 24.3599 3.96299 25.8322 5.29626L20.4119 11.225Z" fill="#191C1F"/>
<path d="M47.5602 19.8073H40.8747V28.0334C40.8709 28.6529 40.9048 29.272 40.9762 29.8873C41.0286 30.398 41.184 30.8927 41.433 31.3413C41.6855 31.7631 42.067 32.092 42.5207 32.2792C43.141 32.5238 43.8052 32.6365 44.4713 32.61C45.0052 32.6015 45.538 32.559 46.0665 32.4827C46.6115 32.4441 47.1321 32.2414 47.5602 31.9011V38.2406C46.7099 38.5473 45.8264 38.7523 44.9281 38.8513C44.0373 38.9519 43.1416 39.0029 42.2452 39.004C41.0511 39.0135 39.8604 38.8767 38.6993 38.5969C37.6785 38.3536 36.7144 37.9141 35.8605 37.3028C35.0452 36.7027 34.3922 35.9081 33.9607 34.9909C33.4789 33.9054 33.246 32.7253 33.2791 31.5376V19.8073H28.4172V13.7114H33.2791V6.39767H40.8747V13.7114H47.5602V19.8073Z" fill="#191C1F"/>
<path d="M78.6096 13.7114H86.2233V17.6736H86.3248C86.9989 16.3113 87.9946 15.1346 89.2253 14.2457C90.4682 13.4439 91.9247 13.0395 93.4019 13.0861C93.8406 13.0861 94.2793 13.1043 94.718 13.137C95.1282 13.1673 95.5348 13.2354 95.9326 13.3406V20.3126C95.4101 20.1537 94.877 20.0322 94.3373 19.9491C93.7931 19.8614 93.2425 19.8189 92.6913 19.8219C91.5127 19.7694 90.3371 19.9766 89.247 20.4289C88.4477 20.7969 87.7706 21.3874 87.2965 22.1301C86.818 22.9289 86.5163 23.8215 86.4118 24.7474C86.2693 25.8587 86.2015 26.9784 86.2088 28.0989V38.4079H78.5951L78.6096 13.7114Z" fill="#191C1F"/>
<path d="M99.9352 0H107.549V16.3577H107.65C108.493 15.1968 109.668 14.3197 111.019 13.8422C112.442 13.3452 113.941 13.0992 115.449 13.1152C117.085 13.0867 118.704 13.4611 120.162 14.2057C121.528 14.9147 122.727 15.9059 123.683 17.1138C124.665 18.3693 125.419 19.7879 125.912 21.305C126.439 22.9019 126.705 24.5738 126.699 26.2559C126.708 28.0051 126.406 29.742 125.807 31.3849C125.27 32.8844 124.433 34.2584 123.349 35.4235C122.276 36.5643 120.973 37.4638 119.528 38.0625C117.954 38.7053 116.267 39.0255 114.568 39.004C113.727 39.0067 112.89 38.8842 112.084 38.6405C111.335 38.4155 110.613 38.1083 109.931 37.7245C109.31 37.38 108.732 36.9626 108.209 36.4813C107.766 36.0764 107.367 35.6255 107.02 35.1363H106.918V38.386H99.9352V0ZM106.925 26.0523C106.925 27.9135 107.457 29.4196 108.521 30.5707C109.583 31.723 111.08 32.2973 113.002 32.2973C114.923 32.2973 116.421 31.723 117.487 30.5707C118.552 29.4184 119.082 27.9135 119.082 26.0523C119.082 24.1912 118.549 22.6827 117.487 21.534C116.424 20.3853 114.927 19.8073 113.002 19.8073C111.077 19.8073 109.583 20.3817 108.521 21.534C107.458 22.6863 106.925 24.1912 106.925 26.0523Z" fill="#191C1F"/>
<path d="M130.223 26.0523C130.197 24.2191 130.56 22.4013 131.289 20.7197C131.965 19.1708 132.952 17.7786 134.189 16.6303C135.453 15.4788 136.932 14.5904 138.54 14.0167C141.998 12.7954 145.767 12.7954 149.225 14.0167C150.833 14.5904 152.312 15.4788 153.575 16.6303C154.813 17.7786 155.8 19.1708 156.476 20.7197C157.205 22.4013 157.568 24.2191 157.542 26.0523C157.568 27.8856 157.205 29.7034 156.476 31.3849C155.801 32.9344 154.814 34.3268 153.575 35.4744C152.312 36.6259 150.833 37.5143 149.225 38.088C145.767 39.3093 141.998 39.3093 138.54 38.088C136.932 37.5143 135.453 36.6259 134.189 35.4744C132.951 34.3268 131.964 32.9344 131.289 31.3849C130.56 29.7034 130.197 27.8856 130.223 26.0523ZM137.837 26.0523C137.837 27.9135 138.369 29.4196 139.432 30.5707C140.496 31.7218 141.989 32.2973 143.913 32.2973C145.847 32.2973 147.342 31.7218 148.398 30.5707C149.454 29.4196 149.986 27.9135 149.993 26.0523C149.993 24.1912 149.462 22.6851 148.398 21.534C147.335 20.3829 145.835 19.8073 143.899 19.8073C141.965 19.8073 140.471 20.3829 139.418 21.534C138.364 22.6851 137.832 24.1912 137.822 26.0523H137.837Z" fill="#191C1F"/>
<path d="M161.12 26.0523C161.094 24.2191 161.457 22.4013 162.186 20.7197C162.862 19.1708 163.849 17.7786 165.087 16.6303C166.35 15.4785 167.829 14.5901 169.437 14.0167C172.896 12.7954 176.667 12.7954 180.125 14.0167C181.734 14.5904 183.213 15.4788 184.476 16.6303C185.714 17.7786 186.701 19.1708 187.377 20.7197C188.104 22.4015 188.466 24.2194 188.439 26.0523C188.466 27.8853 188.104 29.7032 187.377 31.3849C186.702 32.9344 185.714 34.3268 184.476 35.4744C183.213 36.6259 181.734 37.5143 180.125 38.088C176.667 39.3093 172.896 39.3093 169.437 38.088C167.829 37.5146 166.35 36.6262 165.087 35.4744C163.848 34.3268 162.861 32.9344 162.186 31.3849C161.457 29.7034 161.094 27.8856 161.12 26.0523ZM168.734 26.0523C168.734 27.9135 169.266 29.4196 170.329 30.5707C171.393 31.7218 172.886 32.2973 174.81 32.2973C176.744 32.2973 178.239 31.7218 179.295 30.5707C180.351 29.4196 180.883 27.9135 180.89 26.0523C180.89 24.1912 180.359 22.6851 179.295 21.534C178.232 20.3829 176.737 19.8073 174.81 19.8073C172.877 19.8073 171.383 20.3829 170.329 21.534C169.275 22.6851 168.739 24.1912 168.719 26.0523H168.734Z" fill="#191C1F"/>
<path d="M192.931 0H200.545V23.4606L208.952 13.7114H218.259L208.47 24.8346L218.498 38.3933H208.934L200.628 25.8997H200.527V38.3933H192.913L192.931 0Z" fill="#191C1F"/>
<path d="M244.392 34.1258C243.174 35.6882 241.592 36.9265 239.784 37.7317C237.973 38.5686 236.003 39.0026 234.009 39.004C232.187 39.0162 230.378 38.7061 228.665 38.088C227.055 37.5155 225.576 36.627 224.314 35.4744C223.077 34.3257 222.09 32.9335 221.413 31.385C220.687 29.7026 220.325 27.8852 220.351 26.0523C220.32 24.2208 220.676 22.4034 221.395 20.7197C222.072 19.1717 223.06 17.7798 224.296 16.6303C225.558 15.4777 227.037 14.5892 228.646 14.0167C230.365 13.3915 232.18 13.0765 234.009 13.0862C235.649 13.064 237.277 13.3756 238.794 14.0022C240.192 14.5848 241.439 15.4786 242.442 16.6158C243.475 17.8165 244.259 19.2117 244.748 20.7197C245.307 22.4407 245.58 24.2424 245.556 26.0523V28.4406H227.929C228.175 29.7913 228.871 31.018 229.905 31.9193C230.955 32.7945 232.288 33.2547 233.653 33.2134C234.768 33.2505 235.868 32.9585 236.818 32.3737C237.697 31.8015 238.462 31.0705 239.074 30.2181L244.392 34.1258ZM237.961 23.2643C237.988 22.656 237.89 22.0487 237.671 21.4805C237.453 20.9124 237.119 20.3959 236.692 19.9636C236.254 19.5088 235.725 19.1515 235.141 18.9147C234.556 18.678 233.928 18.5672 233.298 18.5896C232.536 18.5758 231.78 18.7142 231.072 18.9967C230.467 19.2446 229.91 19.5964 229.426 20.0364C228.976 20.4519 228.613 20.9537 228.36 21.5122C228.109 22.0642 227.962 22.6584 227.929 23.2643H237.961Z" fill="#191C1F"/>
<path d="M276 38.3933H269.017V35.1436H268.916C268.566 35.6328 268.167 36.0836 267.723 36.4885C267.201 36.9707 266.622 37.3882 266.001 37.7317C265.313 38.1188 264.583 38.4262 263.825 38.6478C263.028 38.8876 262.2 39.0101 261.367 39.0113C259.667 39.0341 257.979 38.714 256.404 38.0698C254.957 37.4711 253.653 36.5717 252.579 35.4308C251.497 34.2646 250.662 32.8908 250.124 31.3922C249.534 29.7479 249.241 28.0108 249.261 26.2632C249.254 24.581 249.519 22.9088 250.048 21.3123C250.54 19.7953 251.293 18.3767 252.274 17.121C253.23 15.9137 254.43 14.9226 255.795 14.213C257.253 13.4685 258.872 13.0941 260.508 13.1225C262.016 13.1065 263.515 13.3524 264.938 13.8495C266.282 14.3286 267.451 15.2027 268.292 16.3577H268.394V0H276.007L276 38.3933ZM269.017 26.0523C269.017 24.1912 268.485 22.6851 267.422 21.534C266.358 20.3829 264.863 19.8073 262.937 19.8073C261.003 19.8073 259.51 20.3829 258.456 21.534C257.402 22.6851 256.87 24.1912 256.861 26.0523C256.861 27.9135 257.392 29.4196 258.456 30.5707C259.519 31.7218 261.013 32.2973 262.937 32.2973C264.871 32.2973 266.366 31.7218 267.422 30.5707C268.478 29.4196 269.01 27.9135 269.017 26.0523Z" fill="#191C1F"/>
<path d="M69.8249 17.5682L73.1241 12.41L68.3493 16.2377C66.8993 17.401 65.0505 17.9442 63.2037 17.7496C61.3569 17.5549 59.6611 16.6382 58.4841 15.1981L54.6084 10.4726L56.7656 16.205C57.4203 17.9479 57.3635 19.8793 56.6075 21.5804C55.8514 23.2816 54.4571 24.6154 52.7267 25.2926L47.0345 27.5245L53.14 27.241C54.9953 27.1546 56.8099 27.8048 58.1903 29.0507C59.5707 30.2966 60.4058 32.0378 60.5144 33.8968L60.877 40.0145L62.494 34.104C62.9836 32.3071 64.1597 30.7761 65.7673 29.8426C67.375 28.9091 69.2848 28.6483 71.0829 29.1167L76.9926 30.6652L71.8878 27.2992C70.337 26.2749 69.2509 24.6793 68.8648 22.8581C68.4787 21.0368 68.8236 19.1363 69.8249 17.5682ZM72.4353 28.5714L63.1284 25.2272L61.4135 34.9945L61.7108 25.0818L51.9218 26.4667L61.4135 23.6859L57.0629 14.7764L62.6354 22.9662L69.7451 16.0596L63.7049 23.9222L72.4353 28.5714Z" fill="#F9A61B"/>
</g>
<defs>
<clipPath id="clip0_277_435">
<rect width="276" height="40" fill="white"/>
</clipPath>
</defs>
</svg>
