<svg width="276" height="65" viewBox="0 0 276 65" fill="none" xmlns="http://www.w3.org/2000/svg">
<g clip-path="url(#clip0_308_7343)">
<path d="M20.4119 11.225C19.7353 10.3805 18.8303 9.7495 17.8052 9.40749C16.8077 9.03646 15.7545 8.83855 14.6908 8.82225C14.0942 8.82513 13.4997 8.89339 12.9179 9.02581C12.3177 9.15658 11.7382 9.36941 11.1958 9.6583C10.672 9.93035 10.2198 10.3227 9.87605 10.8033C9.53025 11.311 9.35382 11.9155 9.37209 12.53C9.34743 13.0137 9.44599 13.4958 9.65847 13.9308C9.87096 14.3657 10.1904 14.7393 10.5867 15.0164C11.5288 15.6587 12.5614 16.1561 13.6503 16.4922C14.883 16.8969 16.2123 17.3028 17.6384 17.7099C19.0379 18.1066 20.3789 18.6872 21.6265 19.4366C22.8504 20.1965 23.8856 21.2258 24.6539 22.4464C25.4612 23.7017 25.866 25.3774 25.8684 27.4736C25.9151 29.2829 25.5389 31.078 24.7699 32.7154C24.0583 34.1619 23.0266 35.4263 21.7534 36.4122C20.4394 37.4178 18.9435 38.1584 17.3483 38.5932C15.6249 39.0728 13.8436 39.3113 12.055 39.3021C9.84911 39.3241 7.656 38.9638 5.5725 38.237C3.50065 37.4784 1.60462 36.3047 0 34.7873L5.62326 28.6078C6.43002 29.6802 7.48697 30.5377 8.70136 31.105C9.88885 31.6838 11.1915 31.9857 12.5118 31.9884C13.1686 31.9865 13.823 31.9097 14.4624 31.7594C15.0842 31.6201 15.6817 31.3886 16.2353 31.0723C16.739 30.7835 17.1715 30.3847 17.5006 29.9055C17.8273 29.4089 17.9955 28.8244 17.9828 28.2297C17.9999 27.7327 17.8956 27.2391 17.6788 26.7918C17.4621 26.3445 17.1395 25.9571 16.7392 25.6634C15.7892 24.9731 14.7388 24.4336 13.6249 24.064C12.3753 23.6253 11.0241 23.1855 9.5715 22.7445C8.15464 22.3221 6.79462 21.7276 5.52174 20.9742C4.27895 20.2361 3.21521 19.2304 2.40738 18.0298C1.57833 16.8181 1.16381 15.209 1.16381 13.2025C1.12388 11.438 1.51601 9.69067 2.30586 8.11341C3.04176 6.68774 4.07853 5.43987 5.34409 4.45656C6.65469 3.45733 8.14012 2.71268 9.72377 2.261C11.3851 1.77268 13.1082 1.52781 14.8394 1.53399C16.8299 1.52466 18.8106 1.81256 20.7165 2.38822C22.6136 2.97026 24.3599 3.96299 25.8322 5.29626L20.4119 11.225Z" fill="white"/>
<path d="M47.5602 19.8073H40.8747V28.0334C40.8709 28.6529 40.9048 29.272 40.9762 29.8873C41.0286 30.398 41.184 30.8927 41.433 31.3413C41.6855 31.7631 42.067 32.092 42.5207 32.2792C43.141 32.5238 43.8052 32.6365 44.4713 32.61C45.0052 32.6015 45.538 32.559 46.0665 32.4827C46.6115 32.4441 47.1321 32.2414 47.5602 31.9011V38.2406C46.7099 38.5473 45.8264 38.7523 44.9281 38.8513C44.0373 38.9519 43.1416 39.0029 42.2452 39.004C41.0511 39.0135 39.8604 38.8767 38.6993 38.5969C37.6785 38.3536 36.7144 37.9141 35.8605 37.3028C35.0452 36.7027 34.3922 35.9081 33.9607 34.9909C33.4789 33.9054 33.246 32.7253 33.2791 31.5376V19.8073H28.4172V13.7114H33.2791V6.39767H40.8747V13.7114H47.5602V19.8073Z" fill="white"/>
<path d="M78.6095 13.7114H86.2232V17.6736H86.3247C86.9988 16.3113 87.9945 15.1346 89.2251 14.2457C90.468 13.4439 91.9246 13.0395 93.4018 13.0861C93.8405 13.0861 94.2792 13.1043 94.7179 13.137C95.1281 13.1673 95.5347 13.2354 95.9324 13.3406V20.3126C95.4099 20.1537 94.8769 20.0322 94.3372 19.9491C93.7929 19.8614 93.2424 19.8189 92.6912 19.8219C91.5126 19.7694 90.3369 19.9766 89.2469 20.4289C88.4476 20.7969 87.7705 21.3874 87.2963 22.1301C86.8178 22.9289 86.5162 23.8215 86.4117 24.7474C86.2692 25.8587 86.2013 26.9784 86.2087 28.0989V38.4079H78.595L78.6095 13.7114Z" fill="white"/>
<path d="M99.9351 0H107.549V16.3577H107.65C108.493 15.1968 109.668 14.3197 111.018 13.8422C112.442 13.3452 113.941 13.0992 115.449 13.1152C117.085 13.0867 118.704 13.4611 120.162 14.2057C121.527 14.9147 122.727 15.9059 123.683 17.1138C124.665 18.3693 125.419 19.7879 125.912 21.305C126.439 22.9019 126.705 24.5738 126.699 26.2559C126.708 28.0051 126.406 29.742 125.807 31.3849C125.269 32.8844 124.433 34.2584 123.349 35.4235C122.276 36.5643 120.973 37.4638 119.528 38.0625C117.954 38.7053 116.267 39.0255 114.568 39.004C113.727 39.0067 112.89 38.8842 112.084 38.6405C111.335 38.4155 110.613 38.1083 109.931 37.7245C109.31 37.38 108.731 36.9626 108.209 36.4813C107.766 36.0764 107.367 35.6255 107.019 35.1363H106.918V38.386H99.9351V0ZM106.925 26.0523C106.925 27.9135 107.457 29.4196 108.52 30.5707C109.583 31.723 111.08 32.2973 113.002 32.2973C114.923 32.2973 116.421 31.723 117.486 30.5707C118.552 29.4184 119.082 27.9135 119.082 26.0523C119.082 24.1912 118.549 22.6827 117.486 21.534C116.424 20.3853 114.927 19.8073 113.002 19.8073C111.076 19.8073 109.583 20.3817 108.52 21.534C107.458 22.6863 106.925 24.1912 106.925 26.0523Z" fill="white"/>
<path d="M130.223 26.0523C130.197 24.2191 130.56 22.4013 131.289 20.7197C131.965 19.1708 132.952 17.7786 134.19 16.6303C135.453 15.4788 136.932 14.5904 138.54 14.0167C141.998 12.7954 145.767 12.7954 149.225 14.0167C150.833 14.5904 152.312 15.4788 153.576 16.6303C154.813 17.7786 155.8 19.1708 156.476 20.7197C157.205 22.4013 157.568 24.2191 157.542 26.0523C157.568 27.8856 157.205 29.7034 156.476 31.3849C155.801 32.9344 154.814 34.3268 153.576 35.4744C152.312 36.6259 150.833 37.5143 149.225 38.088C145.767 39.3093 141.998 39.3093 138.54 38.088C136.932 37.5143 135.453 36.6259 134.19 35.4744C132.951 34.3268 131.964 32.9344 131.289 31.3849C130.56 29.7034 130.197 27.8856 130.223 26.0523ZM137.837 26.0523C137.837 27.9135 138.369 29.4196 139.432 30.5707C140.496 31.7218 141.989 32.2973 143.913 32.2973C145.847 32.2973 147.342 31.7218 148.398 30.5707C149.454 29.4196 149.986 27.9135 149.993 26.0523C149.993 24.1912 149.462 22.6851 148.398 21.534C147.335 20.3829 145.835 19.8073 143.899 19.8073C141.965 19.8073 140.472 20.3829 139.418 21.534C138.364 22.6851 137.832 24.1912 137.822 26.0523H137.837Z" fill="white"/>
<path d="M161.12 26.0523C161.094 24.2191 161.457 22.4013 162.186 20.7197C162.862 19.1708 163.849 17.7786 165.087 16.6303C166.35 15.4785 167.829 14.5901 169.437 14.0167C172.896 12.7954 176.667 12.7954 180.125 14.0167C181.734 14.5904 183.213 15.4788 184.476 16.6303C185.714 17.7786 186.701 19.1708 187.377 20.7197C188.104 22.4015 188.466 24.2194 188.439 26.0523C188.466 27.8853 188.104 29.7032 187.377 31.3849C186.702 32.9344 185.714 34.3268 184.476 35.4744C183.213 36.6259 181.734 37.5143 180.125 38.088C176.667 39.3093 172.896 39.3093 169.437 38.088C167.829 37.5146 166.35 36.6262 165.087 35.4744C163.848 34.3268 162.861 32.9344 162.186 31.3849C161.457 29.7034 161.094 27.8856 161.12 26.0523ZM168.734 26.0523C168.734 27.9135 169.266 29.4196 170.329 30.5707C171.393 31.7218 172.886 32.2973 174.81 32.2973C176.744 32.2973 178.239 31.7218 179.295 30.5707C180.351 29.4196 180.883 27.9135 180.89 26.0523C180.89 24.1912 180.359 22.6851 179.295 21.534C178.232 20.3829 176.737 19.8073 174.81 19.8073C172.877 19.8073 171.383 20.3829 170.329 21.534C169.275 22.6851 168.739 24.1912 168.719 26.0523H168.734Z" fill="white"/>
<path d="M192.931 0H200.545V23.4606L208.952 13.7114H218.259L208.47 24.8346L218.498 38.3933H208.934L200.628 25.8997H200.527V38.3933H192.913L192.931 0Z" fill="white"/>
<path d="M69.8247 17.5682L73.124 12.41L68.3491 16.2377C66.8992 17.401 65.0504 17.9442 63.2036 17.7496C61.3568 17.5549 59.661 16.6382 58.484 15.1981L54.6082 10.4726L56.7655 16.205C57.4202 17.9479 57.3634 19.8793 56.6074 21.5804C55.8513 23.2816 54.4569 24.6154 52.7266 25.2926L47.0344 27.5245L53.1399 27.241C54.9952 27.1546 56.8098 27.8048 58.1902 29.0507C59.5706 30.2966 60.4056 32.0378 60.5143 33.8968L60.8768 40.0145L62.4938 34.104C62.9835 32.3071 64.1595 30.7761 65.7672 29.8426C67.3749 28.9091 69.2847 28.6483 71.0828 29.1167L76.9925 30.6652L71.8877 27.2992C70.3368 26.2749 69.2508 24.6793 68.8647 22.8581C68.4786 21.0368 68.8235 19.1363 69.8247 17.5682ZM72.4351 28.5714L63.1283 25.2272L61.4134 34.9945L61.7107 25.0818L51.9217 26.4667L61.4134 23.6859L57.0627 14.7764L62.6352 22.9662L69.745 16.0596L63.7048 23.9222L72.4351 28.5714Z" fill="#F9A61B"/>
</g>
<path d="M54.2273 55V46.2727H55.5227V47.5909H55.6136C55.7727 47.1591 56.0606 46.8087 56.4773 46.5398C56.8939 46.2708 57.3636 46.1364 57.8864 46.1364C57.9848 46.1364 58.108 46.1383 58.2557 46.142C58.4034 46.1458 58.5152 46.1515 58.5909 46.1591V47.5227C58.5455 47.5114 58.4413 47.4943 58.2784 47.4716C58.1193 47.4451 57.9508 47.4318 57.7727 47.4318C57.3485 47.4318 56.9697 47.5208 56.6364 47.6989C56.3068 47.8731 56.0455 48.1155 55.8523 48.4261C55.6629 48.733 55.5682 49.0833 55.5682 49.4773V55H54.2273ZM65.4939 55.1818C64.653 55.1818 63.9276 54.9962 63.3177 54.625C62.7117 54.25 62.2439 53.7273 61.9143 53.0568C61.5886 52.3826 61.4257 51.5985 61.4257 50.7045C61.4257 49.8106 61.5886 49.0227 61.9143 48.3409C62.2439 47.6553 62.7022 47.1212 63.2893 46.7386C63.8802 46.3523 64.5696 46.1591 65.3575 46.1591C65.812 46.1591 66.2609 46.2348 66.7041 46.3864C67.1473 46.5379 67.5507 46.7841 67.9143 47.125C68.278 47.4621 68.5677 47.9091 68.7836 48.4659C68.9995 49.0227 69.1075 49.7083 69.1075 50.5227V51.0909H62.3802V49.9318H67.7439C67.7439 49.4394 67.6454 49 67.4484 48.6136C67.2552 48.2273 66.9787 47.9223 66.6189 47.6989C66.2628 47.4754 65.8423 47.3636 65.3575 47.3636C64.8234 47.3636 64.3613 47.4962 63.9711 47.7614C63.5848 48.0227 63.2874 48.3636 63.0791 48.7841C62.8708 49.2045 62.7666 49.6553 62.7666 50.1364V50.9091C62.7666 51.5682 62.8802 52.1269 63.1075 52.5852C63.3386 53.0398 63.6586 53.3864 64.0677 53.625C64.4768 53.8598 64.9522 53.9773 65.4939 53.9773C65.8461 53.9773 66.1643 53.928 66.4484 53.8295C66.7363 53.7273 66.9844 53.5758 67.1927 53.375C67.4011 53.1705 67.562 52.9167 67.6757 52.6136L68.9711 52.9773C68.8348 53.4167 68.6056 53.803 68.2836 54.1364C67.9617 54.4659 67.5639 54.7235 67.0905 54.9091C66.617 55.0909 66.0848 55.1818 65.4939 55.1818ZM76.9536 46.2727V47.4091H72.2491V46.2727H76.9536ZM73.6582 55V45.0682C73.6582 44.5682 73.7756 44.1515 74.0105 43.8182C74.2453 43.4848 74.5502 43.2348 74.9252 43.0682C75.3002 42.9015 75.6961 42.8182 76.1127 42.8182C76.4423 42.8182 76.7112 42.8447 76.9195 42.8977C77.1279 42.9508 77.2832 43 77.3855 43.0455L76.9991 44.2045C76.9309 44.1818 76.8362 44.1534 76.715 44.1193C76.5976 44.0852 76.4423 44.0682 76.2491 44.0682C75.8059 44.0682 75.4858 44.1799 75.2889 44.4034C75.0957 44.6269 74.9991 44.9545 74.9991 45.3864V55H73.6582ZM80.7529 55V46.2727H82.0938V55H80.7529ZM81.4347 44.8182C81.1734 44.8182 80.948 44.7292 80.7586 44.5511C80.573 44.3731 80.4802 44.1591 80.4802 43.9091C80.4802 43.6591 80.573 43.4451 80.7586 43.267C80.948 43.089 81.1734 43 81.4347 43C81.6961 43 81.9196 43.089 82.1052 43.267C82.2946 43.4451 82.3893 43.6591 82.3893 43.9091C82.3893 44.1591 82.2946 44.3731 82.1052 44.5511C81.9196 44.7292 81.6961 44.8182 81.4347 44.8182ZM87.8107 49.75V55H86.4698V46.2727H87.7652V47.6364H87.8789C88.0834 47.1932 88.394 46.8371 88.8107 46.5682C89.2273 46.2955 89.7652 46.1591 90.4243 46.1591C91.0152 46.1591 91.5323 46.2803 91.9755 46.5227C92.4186 46.7614 92.7633 47.125 93.0095 47.6136C93.2558 48.0985 93.3789 48.7121 93.3789 49.4545V55H92.038V49.5455C92.038 48.8598 91.8599 48.3258 91.5039 47.9432C91.1478 47.5568 90.6592 47.3636 90.038 47.3636C89.6099 47.3636 89.2273 47.4564 88.8902 47.642C88.5569 47.8277 88.2936 48.0985 88.1005 48.4545C87.9073 48.8106 87.8107 49.2424 87.8107 49.75ZM101.408 55.1818C100.567 55.1818 99.8419 54.9962 99.2321 54.625C98.626 54.25 98.1582 53.7273 97.8287 53.0568C97.5029 52.3826 97.3401 51.5985 97.3401 50.7045C97.3401 49.8106 97.5029 49.0227 97.8287 48.3409C98.1582 47.6553 98.6166 47.1212 99.2037 46.7386C99.7946 46.3523 100.484 46.1591 101.272 46.1591C101.726 46.1591 102.175 46.2348 102.618 46.3864C103.062 46.5379 103.465 46.7841 103.829 47.125C104.192 47.4621 104.482 47.9091 104.698 48.4659C104.914 49.0227 105.022 49.7083 105.022 50.5227V51.0909H98.2946V49.9318H103.658C103.658 49.4394 103.56 49 103.363 48.6136C103.17 48.2273 102.893 47.9223 102.533 47.6989C102.177 47.4754 101.757 47.3636 101.272 47.3636C100.738 47.3636 100.276 47.4962 99.8855 47.7614C99.4991 48.0227 99.2018 48.3636 98.9935 48.7841C98.7851 49.2045 98.681 49.6553 98.681 50.1364V50.9091C98.681 51.5682 98.7946 52.1269 99.0219 52.5852C99.2529 53.0398 99.573 53.3864 99.9821 53.625C100.391 53.8598 100.867 53.9773 101.408 53.9773C101.761 53.9773 102.079 53.928 102.363 53.8295C102.651 53.7273 102.899 53.5758 103.107 53.375C103.315 53.1705 103.476 52.9167 103.59 52.6136L104.886 52.9773C104.749 53.4167 104.52 53.803 104.198 54.1364C103.876 54.4659 103.478 54.7235 103.005 54.9091C102.531 55.0909 101.999 55.1818 101.408 55.1818ZM112.277 55.1818C111.55 55.1818 110.908 54.9981 110.351 54.6307C109.794 54.2595 109.359 53.7367 109.044 53.0625C108.73 52.3845 108.573 51.5833 108.573 50.6591C108.573 49.7424 108.73 48.947 109.044 48.2727C109.359 47.5985 109.796 47.0777 110.357 46.7102C110.917 46.3428 111.565 46.1591 112.3 46.1591C112.868 46.1591 113.317 46.2538 113.646 46.4432C113.98 46.6288 114.234 46.8409 114.408 47.0795C114.586 47.3144 114.724 47.5076 114.823 47.6591H114.936V43.3636H116.277V55H114.982V53.6591H114.823C114.724 53.8182 114.584 54.0189 114.402 54.2614C114.22 54.5 113.961 54.714 113.624 54.9034C113.287 55.089 112.838 55.1818 112.277 55.1818ZM112.459 53.9773C112.997 53.9773 113.451 53.8371 113.823 53.5568C114.194 53.2727 114.476 52.8807 114.669 52.3807C114.862 51.8769 114.959 51.2955 114.959 50.6364C114.959 49.9848 114.864 49.4148 114.675 48.9261C114.485 48.4337 114.205 48.0511 113.834 47.7784C113.463 47.5019 113.004 47.3636 112.459 47.3636C111.891 47.3636 111.417 47.5095 111.038 47.8011C110.663 48.089 110.381 48.4811 110.192 48.9773C110.006 49.4697 109.913 50.0227 109.913 50.6364C109.913 51.2576 110.008 51.822 110.198 52.3295C110.391 52.8333 110.675 53.2348 111.05 53.5341C111.429 53.8295 111.898 53.9773 112.459 53.9773ZM130.805 55.1818C129.986 55.1818 129.282 54.9886 128.691 54.6023C128.1 54.2159 127.646 53.6837 127.327 53.0057C127.009 52.3277 126.85 51.553 126.85 50.6818C126.85 49.7955 127.013 49.0133 127.339 48.3352C127.668 47.6534 128.127 47.1212 128.714 46.7386C129.305 46.3523 129.994 46.1591 130.782 46.1591C131.396 46.1591 131.949 46.2727 132.441 46.5C132.933 46.7273 133.337 47.0455 133.651 47.4545C133.966 47.8636 134.161 48.3409 134.236 48.8864H132.896C132.793 48.4886 132.566 48.1364 132.214 47.8295C131.865 47.5189 131.396 47.3636 130.805 47.3636C130.282 47.3636 129.824 47.5 129.43 47.7727C129.039 48.0417 128.735 48.4223 128.515 48.9148C128.299 49.4034 128.191 49.9773 128.191 50.6364C128.191 51.3106 128.297 51.8977 128.509 52.3977C128.725 52.8977 129.028 53.286 129.418 53.5625C129.812 53.839 130.274 53.9773 130.805 53.9773C131.153 53.9773 131.469 53.9167 131.753 53.7955C132.038 53.6742 132.278 53.5 132.475 53.2727C132.672 53.0455 132.812 52.7727 132.896 52.4545H134.236C134.161 52.9697 133.973 53.4337 133.674 53.8466C133.378 54.2557 132.986 54.5814 132.498 54.8239C132.013 55.0625 131.449 55.1818 130.805 55.1818ZM141.776 55.1818C140.935 55.1818 140.209 54.9962 139.6 54.625C138.994 54.25 138.526 53.7273 138.196 53.0568C137.87 52.3826 137.708 51.5985 137.708 50.7045C137.708 49.8106 137.87 49.0227 138.196 48.3409C138.526 47.6553 138.984 47.1212 139.571 46.7386C140.162 46.3523 140.851 46.1591 141.639 46.1591C142.094 46.1591 142.543 46.2348 142.986 46.3864C143.429 46.5379 143.833 46.7841 144.196 47.125C144.56 47.4621 144.85 47.9091 145.066 48.4659C145.281 49.0227 145.389 49.7083 145.389 50.5227V51.0909H138.662V49.9318H144.026C144.026 49.4394 143.927 49 143.73 48.6136C143.537 48.2273 143.261 47.9223 142.901 47.6989C142.545 47.4754 142.124 47.3636 141.639 47.3636C141.105 47.3636 140.643 47.4962 140.253 47.7614C139.867 48.0227 139.569 48.3636 139.361 48.7841C139.153 49.2045 139.048 49.6553 139.048 50.1364V50.9091C139.048 51.5682 139.162 52.1269 139.389 52.5852C139.62 53.0398 139.941 53.3864 140.35 53.625C140.759 53.8598 141.234 53.9773 141.776 53.9773C142.128 53.9773 142.446 53.928 142.73 53.8295C143.018 53.7273 143.266 53.5758 143.475 53.375C143.683 53.1705 143.844 52.9167 143.958 52.6136L145.253 52.9773C145.117 53.4167 144.887 53.803 144.566 54.1364C144.244 54.4659 143.846 54.7235 143.372 54.9091C142.899 55.0909 142.367 55.1818 141.776 55.1818ZM150.69 43.3636V55H149.349V43.3636H150.69ZM158.725 55.1818C157.884 55.1818 157.159 54.9962 156.549 54.625C155.943 54.25 155.475 53.7273 155.146 53.0568C154.82 52.3826 154.657 51.5985 154.657 50.7045C154.657 49.8106 154.82 49.0227 155.146 48.3409C155.475 47.6553 155.933 47.1212 156.521 46.7386C157.111 46.3523 157.801 46.1591 158.589 46.1591C159.043 46.1591 159.492 46.2348 159.935 46.3864C160.379 46.5379 160.782 46.7841 161.146 47.125C161.509 47.4621 161.799 47.9091 162.015 48.4659C162.231 49.0227 162.339 49.7083 162.339 50.5227V51.0909H155.611V49.9318H160.975C160.975 49.4394 160.877 49 160.68 48.6136C160.486 48.2273 160.21 47.9223 159.85 47.6989C159.494 47.4754 159.074 47.3636 158.589 47.3636C158.055 47.3636 157.593 47.4962 157.202 47.7614C156.816 48.0227 156.519 48.3636 156.31 48.7841C156.102 49.2045 155.998 49.6553 155.998 50.1364V50.9091C155.998 51.5682 156.111 52.1269 156.339 52.5852C156.57 53.0398 156.89 53.3864 157.299 53.625C157.708 53.8598 158.183 53.9773 158.725 53.9773C159.077 53.9773 159.396 53.928 159.68 53.8295C159.968 53.7273 160.216 53.5758 160.424 53.375C160.632 53.1705 160.793 52.9167 160.907 52.6136L162.202 52.9773C162.066 53.4167 161.837 53.803 161.515 54.1364C161.193 54.4659 160.795 54.7235 160.322 54.9091C159.848 55.0909 159.316 55.1818 158.725 55.1818ZM166.48 55V43.3636H167.821V47.6591H167.935C168.033 47.5076 168.17 47.3144 168.344 47.0795C168.522 46.8409 168.776 46.6288 169.105 46.4432C169.439 46.2538 169.889 46.1591 170.458 46.1591C171.192 46.1591 171.84 46.3428 172.401 46.7102C172.961 47.0777 173.399 47.5985 173.713 48.2727C174.028 48.947 174.185 49.7424 174.185 50.6591C174.185 51.5833 174.028 52.3845 173.713 53.0625C173.399 53.7367 172.963 54.2595 172.406 54.6307C171.85 54.9981 171.208 55.1818 170.48 55.1818C169.92 55.1818 169.471 55.089 169.134 54.9034C168.797 54.714 168.537 54.5 168.355 54.2614C168.174 54.0189 168.033 53.8182 167.935 53.6591H167.776V55H166.48ZM167.799 50.6364C167.799 51.2955 167.895 51.8769 168.088 52.3807C168.281 52.8807 168.564 53.2727 168.935 53.5568C169.306 53.8371 169.761 53.9773 170.299 53.9773C170.859 53.9773 171.327 53.8295 171.702 53.5341C172.081 53.2348 172.365 52.8333 172.554 52.3295C172.747 51.822 172.844 51.2576 172.844 50.6364C172.844 50.0227 172.749 49.4697 172.56 48.9773C172.374 48.4811 172.092 48.089 171.713 47.8011C171.338 47.5095 170.867 47.3636 170.299 47.3636C169.753 47.3636 169.295 47.5019 168.924 47.7784C168.552 48.0511 168.272 48.4337 168.083 48.9261C167.893 49.4148 167.799 49.9848 167.799 50.6364ZM178.156 55V46.2727H179.451V47.5909H179.542C179.701 47.1591 179.989 46.8087 180.406 46.5398C180.823 46.2708 181.292 46.1364 181.815 46.1364C181.914 46.1364 182.037 46.1383 182.184 46.142C182.332 46.1458 182.444 46.1515 182.52 46.1591V47.5227C182.474 47.5114 182.37 47.4943 182.207 47.4716C182.048 47.4451 181.88 47.4318 181.701 47.4318C181.277 47.4318 180.898 47.5208 180.565 47.6989C180.236 47.8731 179.974 48.1155 179.781 48.4261C179.592 48.733 179.497 49.0833 179.497 49.4773V55H178.156ZM186.029 55V46.2727H187.37V55H186.029ZM186.711 44.8182C186.45 44.8182 186.224 44.7292 186.035 44.5511C185.849 44.3731 185.756 44.1591 185.756 43.9091C185.756 43.6591 185.849 43.4451 186.035 43.267C186.224 43.089 186.45 43 186.711 43C186.972 43 187.196 43.089 187.381 43.267C187.571 43.4451 187.666 43.6591 187.666 43.9091C187.666 44.1591 187.571 44.3731 187.381 44.5511C187.196 44.7292 186.972 44.8182 186.711 44.8182ZM195.541 46.2727V47.4091H191.019V46.2727H195.541ZM192.337 44.1818H193.678V52.5C193.678 52.8788 193.733 53.1629 193.843 53.3523C193.956 53.5379 194.1 53.6629 194.274 53.7273C194.452 53.7879 194.64 53.8182 194.837 53.8182C194.985 53.8182 195.106 53.8106 195.201 53.7955C195.295 53.7765 195.371 53.7614 195.428 53.75L195.701 54.9545C195.61 54.9886 195.483 55.0227 195.32 55.0568C195.157 55.0947 194.951 55.1136 194.701 55.1136C194.322 55.1136 193.951 55.0322 193.587 54.8693C193.227 54.7064 192.928 54.4583 192.689 54.125C192.454 53.7917 192.337 53.3712 192.337 52.8636V44.1818ZM200.342 58.2727C200.115 58.2727 199.912 58.2538 199.734 58.2159C199.556 58.1818 199.433 58.1477 199.365 58.1136L199.706 56.9318C200.032 57.0152 200.319 57.0455 200.569 57.0227C200.819 57 201.041 56.8883 201.234 56.6875C201.431 56.4905 201.611 56.1705 201.774 55.7273L202.024 55.0455L198.797 46.2727H200.251L202.66 53.2273H202.751L205.16 46.2727H206.615L202.91 56.2727C202.744 56.7235 202.537 57.0966 202.291 57.392C202.045 57.6913 201.759 57.9129 201.433 58.0568C201.111 58.2008 200.747 58.2727 200.342 58.2727ZM210.095 55.0909C209.814 55.0909 209.574 54.9905 209.373 54.7898C209.172 54.589 209.072 54.3485 209.072 54.0682C209.072 53.7879 209.172 53.5473 209.373 53.3466C209.574 53.1458 209.814 53.0455 210.095 53.0455C210.375 53.0455 210.615 53.1458 210.816 53.3466C211.017 53.5473 211.117 53.7879 211.117 54.0682C211.117 54.2538 211.07 54.4242 210.975 54.5795C210.884 54.7348 210.761 54.8598 210.606 54.9545C210.454 55.0455 210.284 55.0909 210.095 55.0909ZM214.458 55.0909C214.178 55.0909 213.937 54.9905 213.737 54.7898C213.536 54.589 213.435 54.3485 213.435 54.0682C213.435 53.7879 213.536 53.5473 213.737 53.3466C213.937 53.1458 214.178 53.0455 214.458 53.0455C214.738 53.0455 214.979 53.1458 215.18 53.3466C215.381 53.5473 215.481 53.7879 215.481 54.0682C215.481 54.2538 215.434 54.4242 215.339 54.5795C215.248 54.7348 215.125 54.8598 214.97 54.9545C214.818 55.0455 214.648 55.0909 214.458 55.0909ZM218.822 55.0909C218.542 55.0909 218.301 54.9905 218.1 54.7898C217.899 54.589 217.799 54.3485 217.799 54.0682C217.799 53.7879 217.899 53.5473 218.1 53.3466C218.301 53.1458 218.542 53.0455 218.822 53.0455C219.102 53.0455 219.343 53.1458 219.543 53.3466C219.744 53.5473 219.845 53.7879 219.845 54.0682C219.845 54.2538 219.797 54.4242 219.702 54.5795C219.612 54.7348 219.488 54.8598 219.333 54.9545C219.182 55.0455 219.011 55.0909 218.822 55.0909Z" fill="#F9A61B"/>
<defs>
<clipPath id="clip0_308_7343">
<rect width="276" height="40" fill="white"/>
</clipPath>
</defs>
</svg>
