<svg width="21" height="14" viewBox="0 0 21 14" fill="none" xmlns="http://www.w3.org/2000/svg">
<path d="M5.02745 3.5H0.0355225V1.5H5.02745V3.5ZM5.02745 6.5H0.0355225V8.5H5.02745V6.5ZM18.5955 13.5L14.7717 9.67C13.973 10.19 13.0345 10.5 12.0161 10.5C9.2606 10.5 7.02422 8.26 7.02422 5.5C7.02422 2.74 9.2606 0.5 12.0161 0.5C14.7717 0.5 17.0081 2.74 17.0081 5.5C17.0081 6.52 16.6986 7.46 16.1794 8.25L20.0032 12.09L18.5955 13.5ZM15.0113 5.5C15.0113 3.85 13.6635 2.5 12.0161 2.5C10.3688 2.5 9.02099 3.85 9.02099 5.5C9.02099 7.15 10.3688 8.5 12.0161 8.5C13.6635 8.5 15.0113 7.15 15.0113 5.5ZM0.0355225 13.5H10.0194V11.5H0.0355225V13.5Z" fill="#191C1F"/>
</svg>
