<svg width="12" height="19" viewBox="0 0 12 19" fill="none" xmlns="http://www.w3.org/2000/svg">
<path d="M11.6939 8.88478L0.68799 0.288582C0.659232 0.26594 0.62467 0.25187 0.588275 0.247986C0.55188 0.244102 0.515127 0.250562 0.482238 0.266624C0.449349 0.282686 0.421658 0.307699 0.402343 0.33879C0.383029 0.369881 0.372875 0.405789 0.373049 0.44239V2.3296C0.373049 2.44923 0.429202 2.56397 0.521975 2.63722L9.31104 9.50002L0.521975 16.3628C0.42676 16.4361 0.373049 16.5508 0.373049 16.6704V18.5576C0.373049 18.7212 0.561037 18.8115 0.68799 18.7114L11.6939 10.1153C11.7874 10.0423 11.8631 9.94895 11.9151 9.84234C11.9672 9.73573 11.9942 9.61865 11.9942 9.50002C11.9942 9.38138 11.9672 9.26431 11.9151 9.15769C11.8631 9.05109 11.7874 8.95775 11.6939 8.88478Z" fill="#191C1F"/>
</svg>
