<svg width="21" height="20" viewBox="0 0 21 20" fill="none" xmlns="http://www.w3.org/2000/svg">
<path d="M20.6786 2.93699C19.9271 3.30699 19.1198 3.55699 18.2711 3.66999C19.1468 3.08778 19.8019 2.17145 20.1143 1.09199C19.2915 1.63497 18.3911 2.01718 17.4521 2.22199C16.8206 1.47285 15.9842 0.976312 15.0728 0.809459C14.1613 0.642607 13.2258 0.814777 12.4114 1.29924C11.597 1.7837 10.9494 2.55335 10.569 3.48869C10.1886 4.42403 10.0968 5.47274 10.3079 6.47199C8.64078 6.37898 7.00993 5.89753 5.52115 5.05889C4.03236 4.22025 2.71892 3.04315 1.66606 1.60399C1.30606 2.29399 1.09906 3.09399 1.09906 3.94599C1.09866 4.71298 1.26865 5.46823 1.59395 6.14472C1.91926 6.82121 2.38981 7.39802 2.96386 7.82399C2.29811 7.80045 1.64705 7.60057 1.06486 7.24099V7.30098C1.0648 8.37673 1.39969 9.41936 2.01273 10.252C2.62576 11.0846 3.47918 11.6559 4.42816 11.869C3.81057 12.0547 3.16307 12.0821 2.53456 11.949C2.80231 12.8746 3.32386 13.684 4.02619 14.2639C4.72853 14.8438 5.57649 15.1652 6.45136 15.183C4.96621 16.4784 3.13206 17.1811 1.24396 17.178C0.909507 17.1781 0.575333 17.1564 0.243164 17.113C2.15969 18.4822 4.39067 19.2088 6.66916 19.206C14.3822 19.206 18.5987 12.108 18.5987 5.95199C18.5987 5.75199 18.5942 5.54999 18.5861 5.34999C19.4062 4.69096 20.1142 3.87488 20.6768 2.93999L20.6786 2.93699V2.93699Z" fill="#F9F9F9" fill-opacity="0.5"/>
</svg>
