<svg width="15" height="15" viewBox="0 0 15 15" fill="none" xmlns="http://www.w3.org/2000/svg">
<path d="M7.50337 3.68159C5.39165 3.68159 3.68833 5.38491 3.68833 7.49663C3.68833 9.60835 5.39165 11.3117 7.50337 11.3117C9.61509 11.3117 11.3184 9.60835 11.3184 7.49663C11.3184 5.38491 9.61509 3.68159 7.50337 3.68159ZM7.50337 9.9769C6.13872 9.9769 5.02309 8.8646 5.02309 7.49663C5.02309 6.12866 6.1354 5.01636 7.50337 5.01636C8.87134 5.01636 9.98364 6.12866 9.98364 7.49663C9.98364 8.8646 8.86802 9.9769 7.50337 9.9769ZM12.3643 3.52554C12.3643 4.02026 11.9659 4.41538 11.4745 4.41538C10.9797 4.41538 10.5846 4.01694 10.5846 3.52554C10.5846 3.03413 10.9831 2.63569 11.4745 2.63569C11.9659 2.63569 12.3643 3.03413 12.3643 3.52554ZM14.8911 4.42866C14.8346 3.23667 14.5624 2.18081 13.6891 1.31089C12.8192 0.440967 11.7633 0.168701 10.5713 0.108936C9.34282 0.039209 5.66059 0.039209 4.43208 0.108936C3.24341 0.165381 2.18755 0.437646 1.31431 1.30757C0.441064 2.17749 0.172119 3.23335 0.112354 4.42534C0.042627 5.65386 0.042627 9.33608 0.112354 10.5646C0.168799 11.7566 0.441064 12.8125 1.31431 13.6824C2.18755 14.5523 3.24009 14.8246 4.43208 14.8843C5.66059 14.9541 9.34282 14.9541 10.5713 14.8843C11.7633 14.8279 12.8192 14.5556 13.6891 13.6824C14.559 12.8125 14.8313 11.7566 14.8911 10.5646C14.9608 9.33608 14.9608 5.65718 14.8911 4.42866ZM13.304 11.8828C13.045 12.5335 12.5436 13.0349 11.8895 13.2972C10.91 13.6857 8.58579 13.596 7.50337 13.596C6.42095 13.596 4.09341 13.6824 3.11724 13.2972C2.46645 13.0382 1.96509 12.5369 1.70278 11.8828C1.31431 10.9033 1.40395 8.57905 1.40395 7.49663C1.40395 6.41421 1.31763 4.08667 1.70278 3.1105C1.96177 2.45972 2.46313 1.95835 3.11724 1.69604C4.09673 1.30757 6.42095 1.39722 7.50337 1.39722C8.58579 1.39722 10.9133 1.31089 11.8895 1.69604C12.5403 1.95503 13.0416 2.4564 13.304 3.1105C13.6924 4.08999 13.6028 6.41421 13.6028 7.49663C13.6028 8.57905 13.6924 10.9066 13.304 11.8828Z" fill="#F9A61B"/>
</svg>
