<svg width="18" height="15" viewBox="0 0 18 15" fill="none" xmlns="http://www.w3.org/2000/svg">
<path d="M16.1497 4.03741C16.1611 4.18842 16.1611 4.33946 16.1611 4.49046C16.1611 9.0964 12.4492 14.4035 5.66497 14.4035C3.57486 14.4035 1.63325 13.8318 0 12.8395C0.296965 12.8718 0.582469 12.8826 0.890859 12.8826C2.61545 12.8826 4.20303 12.3325 5.4708 11.394C3.84898 11.3617 2.48984 10.3585 2.02155 8.97777C2.25 9.01011 2.47841 9.03169 2.71828 9.03169C3.04949 9.03169 3.38073 8.98852 3.68909 8.91305C1.99874 8.58942 0.730934 7.18716 0.730934 5.49363V5.4505C1.22203 5.70938 1.79314 5.87118 2.39843 5.89273C1.40477 5.26709 0.753785 4.19921 0.753785 2.99108C0.753785 2.34388 0.936492 1.75061 1.25631 1.23284C3.0723 3.34705 5.80201 4.72773 8.86289 4.87877C8.8058 4.61989 8.77152 4.35025 8.77152 4.08057C8.77152 2.1605 10.4162 0.596436 12.4606 0.596436C13.5228 0.596436 14.4822 1.01712 15.156 1.69669C15.9898 1.54568 16.7893 1.25442 17.4974 0.85532C17.2233 1.66435 16.6408 2.34392 15.8756 2.77536C16.618 2.69989 17.3375 2.50568 17.9999 2.23604C17.4975 2.92636 16.8693 3.54119 16.1497 4.03741Z" fill="#F9A61B"/>
</svg>
